<?xml version="1.0" encoding="UTF-8" standalone="no"?>
<svg width="155.928mm" height="99.4833mm"
 viewBox="0 0 442 282"
 xmlns="http://www.w3.org/2000/svg" xmlns:xlink="http://www.w3.org/1999/xlink"  version="1.2" baseProfile="tiny">
<title>PopART SVG Image</title>
<desc>A haplotype network image created by PopART.</desc>
<defs>
</defs>
<g fill="none" stroke="black" stroke-width="1" fill-rule="evenodd" stroke-linecap="square" stroke-linejoin="bevel" >

<g fill="none" stroke="#000000" stroke-opacity="1" stroke-width="1" stroke-linecap="square" stroke-linejoin="bevel" transform="matrix(1,0,0,1,0,0)"
font-family=".AppleSystemUIFont" font-size="13" font-weight="400" font-style="normal" 
>
</g>

<g fill="none" stroke="#000000" stroke-opacity="1" stroke-width="1" stroke-linecap="square" stroke-linejoin="bevel" transform="matrix(0.999185,0,0,0.999185,-92.0849,-221.579)"
font-family=".AppleSystemUIFont" font-size="13" font-weight="400" font-style="normal" 
>
</g>

<g fill="#000000" fill-opacity="0" stroke="none" transform="matrix(0.999185,0,0,0.999185,-92.0849,-221.579)"
font-family=".AppleSystemUIFont" font-size="13" font-weight="400" font-style="normal" 
>
<path vector-effect="non-scaling-stroke" fill-rule="evenodd" d="M92.16,221.76 L534.511,221.76 L534.511,503.99 L92.16,503.99 L92.16,221.76"/>
</g>

<g fill="none" stroke="#000000" stroke-opacity="1" stroke-width="1" stroke-linecap="square" stroke-linejoin="bevel" transform="matrix(0.999185,0,0,0.999185,-92.0849,-221.579)"
font-family=".AppleSystemUIFont" font-size="13" font-weight="400" font-style="normal" 
>
</g>

<g fill="none" stroke="#000000" stroke-opacity="1" stroke-width="1" stroke-linecap="square" stroke-linejoin="bevel" transform="matrix(0.999185,0,0,0.999185,-92.0849,-221.579)"
font-family=".AppleSystemUIFont" font-size="13" font-weight="400" font-style="normal" 
>
</g>

<g fill="none" stroke="#000000" stroke-opacity="1" stroke-width="2" stroke-linecap="round" stroke-linejoin="bevel" transform="matrix(0.999185,0,0,0.999185,-92.0849,-221.579)"
font-family=".AppleSystemUIFont" font-size="13" font-weight="400" font-style="normal" 
>
<polyline fill="none" vector-effect="none" points="251.258,382.903 322.432,465.273 " />
<polyline fill="none" vector-effect="none" points="288,418 281,425 " />
</g>

<g fill="none" stroke="#000000" stroke-opacity="1" stroke-width="1" stroke-linecap="square" stroke-linejoin="bevel" transform="matrix(0.999185,0,0,0.999185,-92.0849,-221.579)"
font-family=".AppleSystemUIFont" font-size="13" font-weight="400" font-style="normal" 
>
</g>

<g fill="none" stroke="#000000" stroke-opacity="1" stroke-width="1" stroke-linecap="square" stroke-linejoin="bevel" transform="matrix(0.999185,0,0,0.999185,-92.0849,-221.579)"
font-family=".AppleSystemUIFont" font-size="13" font-weight="400" font-style="normal" 
>
</g>

<g fill="none" stroke="#000000" stroke-opacity="1" stroke-width="2" stroke-linecap="round" stroke-linejoin="bevel" transform="matrix(0.999185,0,0,0.999185,-92.0849,-221.579)"
font-family=".AppleSystemUIFont" font-size="13" font-weight="400" font-style="normal" 
>
<polyline fill="none" vector-effect="none" points="200.532,286.585 251.258,382.903 " />
<polyline fill="none" vector-effect="none" points="229,330 220,334 " />
</g>

<g fill="none" stroke="#000000" stroke-opacity="1" stroke-width="1" stroke-linecap="square" stroke-linejoin="bevel" transform="matrix(0.999185,0,0,0.999185,-92.0849,-221.579)"
font-family=".AppleSystemUIFont" font-size="13" font-weight="400" font-style="normal" 
>
</g>

<g fill="none" stroke="#000000" stroke-opacity="1" stroke-width="1" stroke-linecap="square" stroke-linejoin="bevel" transform="matrix(0.999185,0,0,0.999185,-92.0849,-221.579)"
font-family=".AppleSystemUIFont" font-size="13" font-weight="400" font-style="normal" 
>
</g>

<g fill="none" stroke="#000000" stroke-opacity="1" stroke-width="2" stroke-linecap="round" stroke-linejoin="bevel" transform="matrix(0.999185,0,0,0.999185,-92.0849,-221.579)"
font-family=".AppleSystemUIFont" font-size="13" font-weight="400" font-style="normal" 
>
<polyline fill="none" vector-effect="none" points="399.497,281.795 251.258,382.903 " />
<polyline fill="none" vector-effect="none" points="334,319 340,328 " />
<polyline fill="none" vector-effect="none" points="330,322 336,330 " />
<polyline fill="none" vector-effect="none" points="326,325 332,333 " />
<polyline fill="none" vector-effect="none" points="322,328 328,336 " />
<polyline fill="none" vector-effect="none" points="318,331 324,339 " />
<polyline fill="none" vector-effect="none" points="314,333 319,342 " />
</g>

<g fill="none" stroke="#000000" stroke-opacity="1" stroke-width="1" stroke-linecap="square" stroke-linejoin="bevel" transform="matrix(0.999185,0,0,0.999185,-92.0849,-221.579)"
font-family=".AppleSystemUIFont" font-size="13" font-weight="400" font-style="normal" 
>
</g>

<g fill="none" stroke="#000000" stroke-opacity="1" stroke-width="1" stroke-linecap="square" stroke-linejoin="bevel" transform="matrix(0.999185,0,0,0.999185,-92.0849,-221.579)"
font-family=".AppleSystemUIFont" font-size="13" font-weight="400" font-style="normal" 
>
</g>

<g fill="none" stroke="#000000" stroke-opacity="1" stroke-width="2" stroke-linecap="round" stroke-linejoin="bevel" transform="matrix(0.999185,0,0,0.999185,-92.0849,-221.579)"
font-family=".AppleSystemUIFont" font-size="13" font-weight="400" font-style="normal" 
>
<polyline fill="none" vector-effect="none" points="160.101,445.089 251.258,382.903 " />
<polyline fill="none" vector-effect="none" points="200,411 206,419 " />
</g>

<g fill="none" stroke="#000000" stroke-opacity="1" stroke-width="1" stroke-linecap="square" stroke-linejoin="bevel" transform="matrix(0.999185,0,0,0.999185,-92.0849,-221.579)"
font-family=".AppleSystemUIFont" font-size="13" font-weight="400" font-style="normal" 
>
</g>

<g fill="none" stroke="#000000" stroke-opacity="1" stroke-width="1" stroke-linecap="square" stroke-linejoin="bevel" transform="matrix(0.999185,0,0,0.999185,-92.0849,-221.579)"
font-family=".AppleSystemUIFont" font-size="13" font-weight="400" font-style="normal" 
>
</g>

<g fill="#000000" fill-opacity="0" stroke="#000000" stroke-opacity="0" stroke-width="1" stroke-linecap="square" stroke-linejoin="bevel" transform="matrix(0.999185,0,0,0.999185,-92.0849,-221.579)"
font-family=".AppleSystemUIFont" font-size="13" font-weight="400" font-style="normal" 
>
<path vector-effect="non-scaling-stroke" fill-rule="evenodd" d="M346.149,465.273 C346.149,478.371 335.53,488.99 322.432,488.99 C309.333,488.99 298.715,478.371 298.715,465.273 C298.715,452.174 309.333,441.556 322.432,441.556 C335.53,441.556 346.149,452.174 346.149,465.273 "/>
</g>

<g fill="none" stroke="#000000" stroke-opacity="1" stroke-width="1" stroke-linecap="square" stroke-linejoin="bevel" transform="matrix(0.999185,0,0,0.999185,-92.0849,-221.579)"
font-family=".AppleSystemUIFont" font-size="13" font-weight="400" font-style="normal" 
>
</g>

<g fill="none" stroke="#000000" stroke-opacity="1" stroke-width="1" stroke-linecap="square" stroke-linejoin="bevel" transform="matrix(0.999185,0,0,0.999185,-92.0849,-221.579)"
font-family=".AppleSystemUIFont" font-size="13" font-weight="400" font-style="normal" 
>
</g>

<g fill="#2b9321" fill-opacity="1" stroke="#000000" stroke-opacity="1" stroke-width="1" stroke-linecap="square" stroke-linejoin="bevel" transform="matrix(0.999185,0,0,0.999185,-92.0849,-221.579)"
font-family=".AppleSystemUIFont" font-size="13" font-weight="400" font-style="normal" 
>
<path vector-effect="none" fill-rule="evenodd" d="M346.149,465.273 C346.149,478.371 335.53,488.99 322.432,488.99 C309.333,488.99 298.715,478.371 298.715,465.273 C298.715,452.174 309.333,441.556 322.432,441.556 C335.53,441.556 346.149,452.174 346.149,465.273 "/>
</g>

<g fill="none" stroke="#000000" stroke-opacity="1" stroke-width="1" stroke-linecap="square" stroke-linejoin="bevel" transform="matrix(0.999185,0,0,0.999185,-92.0849,-221.579)"
font-family=".AppleSystemUIFont" font-size="13" font-weight="400" font-style="normal" 
>
</g>

<g fill="none" stroke="#000000" stroke-opacity="1" stroke-width="1" stroke-linecap="square" stroke-linejoin="bevel" transform="matrix(0.999185,0,0,0.999185,-92.0849,-221.579)"
font-family=".AppleSystemUIFont" font-size="13" font-weight="400" font-style="normal" 
>
</g>

<g fill="#000000" fill-opacity="0" stroke="#000000" stroke-opacity="0" stroke-width="1" stroke-linecap="square" stroke-linejoin="bevel" transform="matrix(0.999185,0,0,0.999185,-92.0849,-221.579)"
font-family=".AppleSystemUIFont" font-size="13" font-weight="400" font-style="normal" 
>
<path vector-effect="non-scaling-stroke" fill-rule="evenodd" d="M274.975,382.903 C274.975,396.002 264.356,406.62 251.258,406.62 C238.159,406.62 227.541,396.002 227.541,382.903 C227.541,369.805 238.159,359.186 251.258,359.186 C264.356,359.186 274.975,369.805 274.975,382.903 "/>
</g>

<g fill="none" stroke="#000000" stroke-opacity="1" stroke-width="1" stroke-linecap="square" stroke-linejoin="bevel" transform="matrix(0.999185,0,0,0.999185,-92.0849,-221.579)"
font-family=".AppleSystemUIFont" font-size="13" font-weight="400" font-style="normal" 
>
</g>

<g fill="none" stroke="#000000" stroke-opacity="1" stroke-width="1" stroke-linecap="square" stroke-linejoin="bevel" transform="matrix(0.999185,0,0,0.999185,-92.0849,-221.579)"
font-family=".AppleSystemUIFont" font-size="13" font-weight="400" font-style="normal" 
>
</g>

<g fill="#2b9321" fill-opacity="1" stroke="#000000" stroke-opacity="1" stroke-width="1" stroke-linecap="square" stroke-linejoin="bevel" transform="matrix(0.999185,0,0,0.999185,-92.0849,-221.579)"
font-family=".AppleSystemUIFont" font-size="13" font-weight="400" font-style="normal" 
>
<path vector-effect="none" fill-rule="evenodd" d="M251.258,382.903 L274.975,382.903 L251.258,382.903"/>
</g>

<g fill="none" stroke="#000000" stroke-opacity="1" stroke-width="1" stroke-linecap="square" stroke-linejoin="bevel" transform="matrix(0.999185,0,0,0.999185,-92.0849,-221.579)"
font-family=".AppleSystemUIFont" font-size="13" font-weight="400" font-style="normal" 
>
</g>

<g fill="none" stroke="#000000" stroke-opacity="1" stroke-width="1" stroke-linecap="square" stroke-linejoin="bevel" transform="matrix(0.999185,0,0,0.999185,-92.0849,-221.579)"
font-family=".AppleSystemUIFont" font-size="13" font-weight="400" font-style="normal" 
>
</g>

<g fill="#f78688" fill-opacity="1" stroke="#000000" stroke-opacity="1" stroke-width="1" stroke-linecap="square" stroke-linejoin="bevel" transform="matrix(0.999185,0,0,0.999185,-92.0849,-221.579)"
font-family=".AppleSystemUIFont" font-size="13" font-weight="400" font-style="normal" 
>
<path vector-effect="none" fill-rule="evenodd" d="M274.975,382.903 C274.975,396.002 264.356,406.62 251.258,406.62 C238.159,406.62 227.541,396.002 227.541,382.903 C227.541,369.805 238.159,359.186 251.258,359.186 C264.356,359.186 274.975,369.805 274.975,382.903 "/>
</g>

<g fill="none" stroke="#000000" stroke-opacity="1" stroke-width="1" stroke-linecap="square" stroke-linejoin="bevel" transform="matrix(0.999185,0,0,0.999185,-92.0849,-221.579)"
font-family=".AppleSystemUIFont" font-size="13" font-weight="400" font-style="normal" 
>
</g>

<g fill="none" stroke="#000000" stroke-opacity="1" stroke-width="1" stroke-linecap="square" stroke-linejoin="bevel" transform="matrix(0.999185,0,0,0.999185,-92.0849,-221.579)"
font-family=".AppleSystemUIFont" font-size="13" font-weight="400" font-style="normal" 
>
</g>

<g fill="#000000" fill-opacity="0" stroke="#000000" stroke-opacity="0" stroke-width="1" stroke-linecap="square" stroke-linejoin="bevel" transform="matrix(0.999185,0,0,0.999185,-92.0849,-221.579)"
font-family=".AppleSystemUIFont" font-size="13" font-weight="400" font-style="normal" 
>
<path vector-effect="non-scaling-stroke" fill-rule="evenodd" d="M224.249,286.585 C224.249,299.683 213.63,310.302 200.532,310.302 C187.433,310.302 176.815,299.683 176.815,286.585 C176.815,273.486 187.433,262.868 200.532,262.868 C213.63,262.868 224.249,273.486 224.249,286.585 "/>
</g>

<g fill="none" stroke="#000000" stroke-opacity="1" stroke-width="1" stroke-linecap="square" stroke-linejoin="bevel" transform="matrix(0.999185,0,0,0.999185,-92.0849,-221.579)"
font-family=".AppleSystemUIFont" font-size="13" font-weight="400" font-style="normal" 
>
</g>

<g fill="none" stroke="#000000" stroke-opacity="1" stroke-width="1" stroke-linecap="square" stroke-linejoin="bevel" transform="matrix(0.999185,0,0,0.999185,-92.0849,-221.579)"
font-family=".AppleSystemUIFont" font-size="13" font-weight="400" font-style="normal" 
>
</g>

<g fill="#2b9321" fill-opacity="1" stroke="#000000" stroke-opacity="1" stroke-width="1" stroke-linecap="square" stroke-linejoin="bevel" transform="matrix(0.999185,0,0,0.999185,-92.0849,-221.579)"
font-family=".AppleSystemUIFont" font-size="13" font-weight="400" font-style="normal" 
>
<path vector-effect="none" fill-rule="evenodd" d="M200.532,286.585 L224.249,286.585 L200.532,286.585"/>
</g>

<g fill="none" stroke="#000000" stroke-opacity="1" stroke-width="1" stroke-linecap="square" stroke-linejoin="bevel" transform="matrix(0.999185,0,0,0.999185,-92.0849,-221.579)"
font-family=".AppleSystemUIFont" font-size="13" font-weight="400" font-style="normal" 
>
</g>

<g fill="none" stroke="#000000" stroke-opacity="1" stroke-width="1" stroke-linecap="square" stroke-linejoin="bevel" transform="matrix(0.999185,0,0,0.999185,-92.0849,-221.579)"
font-family=".AppleSystemUIFont" font-size="13" font-weight="400" font-style="normal" 
>
</g>

<g fill="#f78688" fill-opacity="1" stroke="#000000" stroke-opacity="1" stroke-width="1" stroke-linecap="square" stroke-linejoin="bevel" transform="matrix(0.999185,0,0,0.999185,-92.0849,-221.579)"
font-family=".AppleSystemUIFont" font-size="13" font-weight="400" font-style="normal" 
>
<path vector-effect="none" fill-rule="evenodd" d="M200.532,286.585 L224.249,286.585 L200.532,286.585"/>
</g>

<g fill="none" stroke="#000000" stroke-opacity="1" stroke-width="1" stroke-linecap="square" stroke-linejoin="bevel" transform="matrix(0.999185,0,0,0.999185,-92.0849,-221.579)"
font-family=".AppleSystemUIFont" font-size="13" font-weight="400" font-style="normal" 
>
</g>

<g fill="none" stroke="#000000" stroke-opacity="1" stroke-width="1" stroke-linecap="square" stroke-linejoin="bevel" transform="matrix(0.999185,0,0,0.999185,-92.0849,-221.579)"
font-family=".AppleSystemUIFont" font-size="13" font-weight="400" font-style="normal" 
>
</g>

<g fill="#da0016" fill-opacity="1" stroke="#000000" stroke-opacity="1" stroke-width="1" stroke-linecap="square" stroke-linejoin="bevel" transform="matrix(0.999185,0,0,0.999185,-92.0849,-221.579)"
font-family=".AppleSystemUIFont" font-size="13" font-weight="400" font-style="normal" 
>
<path vector-effect="none" fill-rule="evenodd" d="M224.249,286.585 C224.249,299.683 213.63,310.302 200.532,310.302 C187.433,310.302 176.815,299.683 176.815,286.585 C176.815,273.486 187.433,262.868 200.532,262.868 C213.63,262.868 224.249,273.486 224.249,286.585 "/>
</g>

<g fill="none" stroke="#000000" stroke-opacity="1" stroke-width="1" stroke-linecap="square" stroke-linejoin="bevel" transform="matrix(0.999185,0,0,0.999185,-92.0849,-221.579)"
font-family=".AppleSystemUIFont" font-size="13" font-weight="400" font-style="normal" 
>
</g>

<g fill="none" stroke="#000000" stroke-opacity="1" stroke-width="1" stroke-linecap="square" stroke-linejoin="bevel" transform="matrix(0.999185,0,0,0.999185,-92.0849,-221.579)"
font-family=".AppleSystemUIFont" font-size="13" font-weight="400" font-style="normal" 
>
</g>

<g fill="#000000" fill-opacity="0" stroke="#000000" stroke-opacity="0" stroke-width="1" stroke-linecap="square" stroke-linejoin="bevel" transform="matrix(0.999185,0,0,0.999185,-92.0849,-221.579)"
font-family=".AppleSystemUIFont" font-size="13" font-weight="400" font-style="normal" 
>
<path vector-effect="non-scaling-stroke" fill-rule="evenodd" d="M423.214,281.795 C423.214,294.894 412.595,305.512 399.497,305.512 C386.398,305.512 375.78,294.894 375.78,281.795 C375.78,268.697 386.398,258.078 399.497,258.078 C412.595,258.078 423.214,268.697 423.214,281.795 "/>
</g>

<g fill="none" stroke="#000000" stroke-opacity="1" stroke-width="1" stroke-linecap="square" stroke-linejoin="bevel" transform="matrix(0.999185,0,0,0.999185,-92.0849,-221.579)"
font-family=".AppleSystemUIFont" font-size="13" font-weight="400" font-style="normal" 
>
</g>

<g fill="none" stroke="#000000" stroke-opacity="1" stroke-width="1" stroke-linecap="square" stroke-linejoin="bevel" transform="matrix(0.999185,0,0,0.999185,-92.0849,-221.579)"
font-family=".AppleSystemUIFont" font-size="13" font-weight="400" font-style="normal" 
>
</g>

<g fill="#2b9321" fill-opacity="1" stroke="#000000" stroke-opacity="1" stroke-width="1" stroke-linecap="square" stroke-linejoin="bevel" transform="matrix(0.999185,0,0,0.999185,-92.0849,-221.579)"
font-family=".AppleSystemUIFont" font-size="13" font-weight="400" font-style="normal" 
>
<path vector-effect="none" fill-rule="evenodd" d="M399.497,281.795 L423.214,281.795 L399.497,281.795"/>
</g>

<g fill="none" stroke="#000000" stroke-opacity="1" stroke-width="1" stroke-linecap="square" stroke-linejoin="bevel" transform="matrix(0.999185,0,0,0.999185,-92.0849,-221.579)"
font-family=".AppleSystemUIFont" font-size="13" font-weight="400" font-style="normal" 
>
</g>

<g fill="none" stroke="#000000" stroke-opacity="1" stroke-width="1" stroke-linecap="square" stroke-linejoin="bevel" transform="matrix(0.999185,0,0,0.999185,-92.0849,-221.579)"
font-family=".AppleSystemUIFont" font-size="13" font-weight="400" font-style="normal" 
>
</g>

<g fill="#f78688" fill-opacity="1" stroke="#000000" stroke-opacity="1" stroke-width="1" stroke-linecap="square" stroke-linejoin="bevel" transform="matrix(0.999185,0,0,0.999185,-92.0849,-221.579)"
font-family=".AppleSystemUIFont" font-size="13" font-weight="400" font-style="normal" 
>
<path vector-effect="none" fill-rule="evenodd" d="M399.497,281.795 L423.214,281.795 L399.497,281.795"/>
</g>

<g fill="none" stroke="#000000" stroke-opacity="1" stroke-width="1" stroke-linecap="square" stroke-linejoin="bevel" transform="matrix(0.999185,0,0,0.999185,-92.0849,-221.579)"
font-family=".AppleSystemUIFont" font-size="13" font-weight="400" font-style="normal" 
>
</g>

<g fill="none" stroke="#000000" stroke-opacity="1" stroke-width="1" stroke-linecap="square" stroke-linejoin="bevel" transform="matrix(0.999185,0,0,0.999185,-92.0849,-221.579)"
font-family=".AppleSystemUIFont" font-size="13" font-weight="400" font-style="normal" 
>
</g>

<g fill="#da0016" fill-opacity="1" stroke="#000000" stroke-opacity="1" stroke-width="1" stroke-linecap="square" stroke-linejoin="bevel" transform="matrix(0.999185,0,0,0.999185,-92.0849,-221.579)"
font-family=".AppleSystemUIFont" font-size="13" font-weight="400" font-style="normal" 
>
<path vector-effect="none" fill-rule="evenodd" d="M399.497,281.795 L423.214,281.795 L399.497,281.795"/>
</g>

<g fill="none" stroke="#000000" stroke-opacity="1" stroke-width="1" stroke-linecap="square" stroke-linejoin="bevel" transform="matrix(0.999185,0,0,0.999185,-92.0849,-221.579)"
font-family=".AppleSystemUIFont" font-size="13" font-weight="400" font-style="normal" 
>
</g>

<g fill="none" stroke="#000000" stroke-opacity="1" stroke-width="1" stroke-linecap="square" stroke-linejoin="bevel" transform="matrix(0.999185,0,0,0.999185,-92.0849,-221.579)"
font-family=".AppleSystemUIFont" font-size="13" font-weight="400" font-style="normal" 
>
</g>

<g fill="#f9b25d" fill-opacity="1" stroke="#000000" stroke-opacity="1" stroke-width="1" stroke-linecap="square" stroke-linejoin="bevel" transform="matrix(0.999185,0,0,0.999185,-92.0849,-221.579)"
font-family=".AppleSystemUIFont" font-size="13" font-weight="400" font-style="normal" 
>
<path vector-effect="none" fill-rule="evenodd" d="M423.214,281.795 C423.214,294.894 412.595,305.512 399.497,305.512 C386.398,305.512 375.78,294.894 375.78,281.795 C375.78,268.697 386.398,258.078 399.497,258.078 C412.595,258.078 423.214,268.697 423.214,281.795 "/>
</g>

<g fill="none" stroke="#000000" stroke-opacity="1" stroke-width="1" stroke-linecap="square" stroke-linejoin="bevel" transform="matrix(0.999185,0,0,0.999185,-92.0849,-221.579)"
font-family=".AppleSystemUIFont" font-size="13" font-weight="400" font-style="normal" 
>
</g>

<g fill="none" stroke="#000000" stroke-opacity="1" stroke-width="1" stroke-linecap="square" stroke-linejoin="bevel" transform="matrix(0.999185,0,0,0.999185,-92.0849,-221.579)"
font-family=".AppleSystemUIFont" font-size="13" font-weight="400" font-style="normal" 
>
</g>

<g fill="#000000" fill-opacity="0" stroke="#000000" stroke-opacity="0" stroke-width="1" stroke-linecap="square" stroke-linejoin="bevel" transform="matrix(0.999185,0,0,0.999185,-92.0849,-221.579)"
font-family=".AppleSystemUIFont" font-size="13" font-weight="400" font-style="normal" 
>
<path vector-effect="non-scaling-stroke" fill-rule="evenodd" d="M183.818,445.089 C183.818,458.188 173.199,468.806 160.101,468.806 C147.002,468.806 136.383,458.188 136.383,445.089 C136.383,431.991 147.002,421.372 160.101,421.372 C173.199,421.372 183.818,431.991 183.818,445.089 "/>
</g>

<g fill="none" stroke="#000000" stroke-opacity="1" stroke-width="1" stroke-linecap="square" stroke-linejoin="bevel" transform="matrix(0.999185,0,0,0.999185,-92.0849,-221.579)"
font-family=".AppleSystemUIFont" font-size="13" font-weight="400" font-style="normal" 
>
</g>

<g fill="none" stroke="#000000" stroke-opacity="1" stroke-width="1" stroke-linecap="square" stroke-linejoin="bevel" transform="matrix(0.999185,0,0,0.999185,-92.0849,-221.579)"
font-family=".AppleSystemUIFont" font-size="13" font-weight="400" font-style="normal" 
>
</g>

<g fill="#2b9321" fill-opacity="1" stroke="#000000" stroke-opacity="1" stroke-width="1" stroke-linecap="square" stroke-linejoin="bevel" transform="matrix(0.999185,0,0,0.999185,-92.0849,-221.579)"
font-family=".AppleSystemUIFont" font-size="13" font-weight="400" font-style="normal" 
>
<path vector-effect="none" fill-rule="evenodd" d="M160.101,445.089 L183.818,445.089 L160.101,445.089"/>
</g>

<g fill="none" stroke="#000000" stroke-opacity="1" stroke-width="1" stroke-linecap="square" stroke-linejoin="bevel" transform="matrix(0.999185,0,0,0.999185,-92.0849,-221.579)"
font-family=".AppleSystemUIFont" font-size="13" font-weight="400" font-style="normal" 
>
</g>

<g fill="none" stroke="#000000" stroke-opacity="1" stroke-width="1" stroke-linecap="square" stroke-linejoin="bevel" transform="matrix(0.999185,0,0,0.999185,-92.0849,-221.579)"
font-family=".AppleSystemUIFont" font-size="13" font-weight="400" font-style="normal" 
>
</g>

<g fill="#f78688" fill-opacity="1" stroke="#000000" stroke-opacity="1" stroke-width="1" stroke-linecap="square" stroke-linejoin="bevel" transform="matrix(0.999185,0,0,0.999185,-92.0849,-221.579)"
font-family=".AppleSystemUIFont" font-size="13" font-weight="400" font-style="normal" 
>
<path vector-effect="none" fill-rule="evenodd" d="M160.101,445.089 L183.818,445.089 L160.101,445.089"/>
</g>

<g fill="none" stroke="#000000" stroke-opacity="1" stroke-width="1" stroke-linecap="square" stroke-linejoin="bevel" transform="matrix(0.999185,0,0,0.999185,-92.0849,-221.579)"
font-family=".AppleSystemUIFont" font-size="13" font-weight="400" font-style="normal" 
>
</g>

<g fill="none" stroke="#000000" stroke-opacity="1" stroke-width="1" stroke-linecap="square" stroke-linejoin="bevel" transform="matrix(0.999185,0,0,0.999185,-92.0849,-221.579)"
font-family=".AppleSystemUIFont" font-size="13" font-weight="400" font-style="normal" 
>
</g>

<g fill="#da0016" fill-opacity="1" stroke="#000000" stroke-opacity="1" stroke-width="1" stroke-linecap="square" stroke-linejoin="bevel" transform="matrix(0.999185,0,0,0.999185,-92.0849,-221.579)"
font-family=".AppleSystemUIFont" font-size="13" font-weight="400" font-style="normal" 
>
<path vector-effect="none" fill-rule="evenodd" d="M160.101,445.089 L183.818,445.089 L160.101,445.089"/>
</g>

<g fill="none" stroke="#000000" stroke-opacity="1" stroke-width="1" stroke-linecap="square" stroke-linejoin="bevel" transform="matrix(0.999185,0,0,0.999185,-92.0849,-221.579)"
font-family=".AppleSystemUIFont" font-size="13" font-weight="400" font-style="normal" 
>
</g>

<g fill="none" stroke="#000000" stroke-opacity="1" stroke-width="1" stroke-linecap="square" stroke-linejoin="bevel" transform="matrix(0.999185,0,0,0.999185,-92.0849,-221.579)"
font-family=".AppleSystemUIFont" font-size="13" font-weight="400" font-style="normal" 
>
</g>

<g fill="#f9b25d" fill-opacity="1" stroke="#000000" stroke-opacity="1" stroke-width="1" stroke-linecap="square" stroke-linejoin="bevel" transform="matrix(0.999185,0,0,0.999185,-92.0849,-221.579)"
font-family=".AppleSystemUIFont" font-size="13" font-weight="400" font-style="normal" 
>
<path vector-effect="none" fill-rule="evenodd" d="M160.101,445.089 L183.818,445.089 L160.101,445.089"/>
</g>

<g fill="none" stroke="#000000" stroke-opacity="1" stroke-width="1" stroke-linecap="square" stroke-linejoin="bevel" transform="matrix(0.999185,0,0,0.999185,-92.0849,-221.579)"
font-family=".AppleSystemUIFont" font-size="13" font-weight="400" font-style="normal" 
>
</g>

<g fill="none" stroke="#000000" stroke-opacity="1" stroke-width="1" stroke-linecap="square" stroke-linejoin="bevel" transform="matrix(0.999185,0,0,0.999185,-92.0849,-221.579)"
font-family=".AppleSystemUIFont" font-size="13" font-weight="400" font-style="normal" 
>
</g>

<g fill="#f66a07" fill-opacity="1" stroke="#000000" stroke-opacity="1" stroke-width="1" stroke-linecap="square" stroke-linejoin="bevel" transform="matrix(0.999185,0,0,0.999185,-92.0849,-221.579)"
font-family=".AppleSystemUIFont" font-size="13" font-weight="400" font-style="normal" 
>
<path vector-effect="none" fill-rule="evenodd" d="M183.818,445.089 C183.818,458.188 173.199,468.806 160.101,468.806 C147.002,468.806 136.383,458.188 136.383,445.089 C136.383,431.991 147.002,421.372 160.101,421.372 C173.199,421.372 183.818,431.991 183.818,445.089 "/>
</g>

<g fill="none" stroke="#000000" stroke-opacity="1" stroke-width="1" stroke-linecap="square" stroke-linejoin="bevel" transform="matrix(0.999185,0,0,0.999185,-92.0849,-221.579)"
font-family=".AppleSystemUIFont" font-size="13" font-weight="400" font-style="normal" 
>
</g>

<g fill="none" stroke="#000000" stroke-opacity="1" stroke-width="1" stroke-linecap="square" stroke-linejoin="bevel" transform="matrix(0.999185,0,0,0.999185,345.772,81.8852)"
font-family=".AppleSystemUIFont" font-size="13" font-weight="400" font-style="normal" 
>
</g>

<g fill="#ffffff" fill-opacity="1" stroke="#000000" stroke-opacity="1" stroke-width="1" stroke-linecap="square" stroke-linejoin="bevel" transform="matrix(0.999185,0,0,0.999185,345.772,81.8852)"
font-family=".AppleSystemUIFont" font-size="13" font-weight="400" font-style="normal" 
>
<path vector-effect="none" fill-rule="evenodd" d="M0,0 L95.2969,0 L95.2969,199.278 L0,199.278 L0,0"/>
</g>

<g fill="none" stroke="#000000" stroke-opacity="1" stroke-width="1" stroke-linecap="square" stroke-linejoin="bevel" transform="matrix(0.999185,0,0,0.999185,345.772,81.8852)"
font-family=".AppleSystemUIFont" font-size="13" font-weight="400" font-style="normal" 
>
</g>

<g fill="none" stroke="#000000" stroke-opacity="1" stroke-width="1" stroke-linecap="square" stroke-linejoin="bevel" transform="matrix(0.999185,0,0,0.999185,369.684,96.873)"
font-family=".AppleSystemUIFont" font-size="13" font-weight="400" font-style="normal" 
>
</g>

<g fill="#000000" fill-opacity="0" stroke="#000000" stroke-opacity="1" stroke-width="1" stroke-linecap="square" stroke-linejoin="bevel" transform="matrix(0.999185,0,0,0.999185,369.684,96.873)"
font-family=".AppleSystemUIFont" font-size="13" font-weight="400" font-style="normal" 
>
<path vector-effect="none" fill-rule="evenodd" d="M47.4342,23.7171 C47.4342,36.8157 36.8157,47.4342 23.7171,47.4342 C10.6185,47.4342 0,36.8157 0,23.7171 C0,10.6185 10.6185,0 23.7171,0 C36.8157,0 47.4342,10.6185 47.4342,23.7171 "/>
</g>

<g fill="none" stroke="#000000" stroke-opacity="1" stroke-width="1" stroke-linecap="square" stroke-linejoin="bevel" transform="matrix(0.999185,0,0,0.999185,369.684,96.873)"
font-family=".AppleSystemUIFont" font-size="13" font-weight="400" font-style="normal" 
>
</g>

<g fill="none" stroke="#000000" stroke-opacity="1" stroke-width="1" stroke-linecap="square" stroke-linejoin="bevel" transform="matrix(0.999185,0,0,0.999185,380.236,117.152)"
font-family=".AppleSystemUIFont" font-size="13" font-weight="400" font-style="normal" 
>
</g>

<g fill="none" stroke="#000000" stroke-opacity="1" stroke-width="1" stroke-linecap="square" stroke-linejoin="bevel" transform="matrix(0.999185,0,0,0.999185,380.236,117.152)"
font-family="Baskerville" font-size="6" font-weight="400" font-style="normal" 
>
<text fill="#000000" fill-opacity="1" stroke="none" xml:space="preserve" x="0" y="5.375" font-family="Baskerville" font-size="6" font-weight="400" font-style="normal" 
 >10 samples</text>
</g>

<g fill="none" stroke="#000000" stroke-opacity="1" stroke-width="1" stroke-linecap="square" stroke-linejoin="bevel" transform="matrix(0.999185,0,0,0.999185,380.236,117.152)"
font-family=".AppleSystemUIFont" font-size="13" font-weight="400" font-style="normal" 
>
</g>

<g fill="none" stroke="#000000" stroke-opacity="1" stroke-width="1" stroke-linecap="square" stroke-linejoin="bevel" transform="matrix(0.999185,0,0,0.999185,385.888,130.28)"
font-family=".AppleSystemUIFont" font-size="13" font-weight="400" font-style="normal" 
>
</g>

<g fill="#000000" fill-opacity="0" stroke="#000000" stroke-opacity="1" stroke-width="1" stroke-linecap="square" stroke-linejoin="bevel" transform="matrix(0.999185,0,0,0.999185,385.888,130.28)"
font-family=".AppleSystemUIFont" font-size="13" font-weight="400" font-style="normal" 
>
<path vector-effect="none" fill-rule="evenodd" d="M15,7.5 C15,11.6421 11.6421,15 7.5,15 C3.35786,15 0,11.6421 0,7.5 C0,3.35786 3.35786,0 7.5,0 C11.6421,0 15,3.35786 15,7.5 "/>
</g>

<g fill="none" stroke="#000000" stroke-opacity="1" stroke-width="1" stroke-linecap="square" stroke-linejoin="bevel" transform="matrix(0.999185,0,0,0.999185,385.888,130.28)"
font-family=".AppleSystemUIFont" font-size="13" font-weight="400" font-style="normal" 
>
</g>

<g fill="none" stroke="#000000" stroke-opacity="1" stroke-width="1" stroke-linecap="square" stroke-linejoin="bevel" transform="matrix(0.999185,0,0,0.999185,382.734,145.767)"
font-family=".AppleSystemUIFont" font-size="13" font-weight="400" font-style="normal" 
>
</g>

<g fill="none" stroke="#000000" stroke-opacity="1" stroke-width="1" stroke-linecap="square" stroke-linejoin="bevel" transform="matrix(0.999185,0,0,0.999185,382.734,145.767)"
font-family="Baskerville" font-size="6" font-weight="400" font-style="normal" 
>
<text fill="#000000" fill-opacity="1" stroke="none" xml:space="preserve" x="0" y="5.375" font-family="Baskerville" font-size="6" font-weight="400" font-style="normal" 
 >1 sample</text>
</g>

<g fill="none" stroke="#000000" stroke-opacity="1" stroke-width="1" stroke-linecap="square" stroke-linejoin="bevel" transform="matrix(0.999185,0,0,0.999185,382.734,145.767)"
font-family=".AppleSystemUIFont" font-size="13" font-weight="400" font-style="normal" 
>
</g>

<g fill="none" stroke="#000000" stroke-opacity="1" stroke-width="1" stroke-linecap="square" stroke-linejoin="bevel" transform="matrix(0.999185,0,0,0.999185,360.76,166.094)"
font-family=".AppleSystemUIFont" font-size="13" font-weight="400" font-style="normal" 
>
</g>

<g fill="#2b9321" fill-opacity="1" stroke="#000000" stroke-opacity="1" stroke-width="1" stroke-linecap="square" stroke-linejoin="bevel" transform="matrix(0.999185,0,0,0.999185,360.76,166.094)"
font-family=".AppleSystemUIFont" font-size="13" font-weight="400" font-style="normal" 
>
<path vector-effect="non-scaling-stroke" fill-rule="evenodd" d="M15,7.5 C15,11.6421 11.6421,15 7.5,15 C3.35786,15 0,11.6421 0,7.5 C0,3.35786 3.35786,0 7.5,0 C11.6421,0 15,3.35786 15,7.5 "/>
</g>

<g fill="none" stroke="#000000" stroke-opacity="1" stroke-width="1" stroke-linecap="square" stroke-linejoin="bevel" transform="matrix(0.999185,0,0,0.999185,360.76,166.094)"
font-family=".AppleSystemUIFont" font-size="13" font-weight="400" font-style="normal" 
>
</g>

<g fill="none" stroke="#000000" stroke-opacity="1" stroke-width="1" stroke-linecap="square" stroke-linejoin="bevel" transform="matrix(0.999185,0,0,0.999185,390.735,166.094)"
font-family=".AppleSystemUIFont" font-size="13" font-weight="400" font-style="normal" 
>
</g>

<g fill="none" stroke="#000000" stroke-opacity="1" stroke-width="1" stroke-linecap="square" stroke-linejoin="bevel" transform="matrix(0.999185,0,0,0.999185,390.735,166.094)"
font-family="Baskerville" font-size="10" font-weight="400" font-style="normal" 
>
<text fill="#000000" fill-opacity="1" stroke="none" xml:space="preserve" x="0" y="8.96875" font-family="Baskerville" font-size="10" font-weight="400" font-style="normal" 
 >Haplo_1</text>
</g>

<g fill="none" stroke="#000000" stroke-opacity="1" stroke-width="1" stroke-linecap="square" stroke-linejoin="bevel" transform="matrix(0.999185,0,0,0.999185,390.735,166.094)"
font-family=".AppleSystemUIFont" font-size="13" font-weight="400" font-style="normal" 
>
</g>

<g fill="none" stroke="#000000" stroke-opacity="1" stroke-width="1" stroke-linecap="square" stroke-linejoin="bevel" transform="matrix(0.999185,0,0,0.999185,360.76,186.078)"
font-family=".AppleSystemUIFont" font-size="13" font-weight="400" font-style="normal" 
>
</g>

<g fill="#f78688" fill-opacity="1" stroke="#000000" stroke-opacity="1" stroke-width="1" stroke-linecap="square" stroke-linejoin="bevel" transform="matrix(0.999185,0,0,0.999185,360.76,186.078)"
font-family=".AppleSystemUIFont" font-size="13" font-weight="400" font-style="normal" 
>
<path vector-effect="non-scaling-stroke" fill-rule="evenodd" d="M15,7.5 C15,11.6421 11.6421,15 7.5,15 C3.35786,15 0,11.6421 0,7.5 C0,3.35786 3.35786,0 7.5,0 C11.6421,0 15,3.35786 15,7.5 "/>
</g>

<g fill="none" stroke="#000000" stroke-opacity="1" stroke-width="1" stroke-linecap="square" stroke-linejoin="bevel" transform="matrix(0.999185,0,0,0.999185,360.76,186.078)"
font-family=".AppleSystemUIFont" font-size="13" font-weight="400" font-style="normal" 
>
</g>

<g fill="none" stroke="#000000" stroke-opacity="1" stroke-width="1" stroke-linecap="square" stroke-linejoin="bevel" transform="matrix(0.999185,0,0,0.999185,390.735,186.078)"
font-family=".AppleSystemUIFont" font-size="13" font-weight="400" font-style="normal" 
>
</g>

<g fill="none" stroke="#000000" stroke-opacity="1" stroke-width="1" stroke-linecap="square" stroke-linejoin="bevel" transform="matrix(0.999185,0,0,0.999185,390.735,186.078)"
font-family="Baskerville" font-size="10" font-weight="400" font-style="normal" 
>
<text fill="#000000" fill-opacity="1" stroke="none" xml:space="preserve" x="0" y="8.96875" font-family="Baskerville" font-size="10" font-weight="400" font-style="normal" 
 >Haplo_2</text>
</g>

<g fill="none" stroke="#000000" stroke-opacity="1" stroke-width="1" stroke-linecap="square" stroke-linejoin="bevel" transform="matrix(0.999185,0,0,0.999185,390.735,186.078)"
font-family=".AppleSystemUIFont" font-size="13" font-weight="400" font-style="normal" 
>
</g>

<g fill="none" stroke="#000000" stroke-opacity="1" stroke-width="1" stroke-linecap="square" stroke-linejoin="bevel" transform="matrix(0.999185,0,0,0.999185,360.76,206.062)"
font-family=".AppleSystemUIFont" font-size="13" font-weight="400" font-style="normal" 
>
</g>

<g fill="#da0016" fill-opacity="1" stroke="#000000" stroke-opacity="1" stroke-width="1" stroke-linecap="square" stroke-linejoin="bevel" transform="matrix(0.999185,0,0,0.999185,360.76,206.062)"
font-family=".AppleSystemUIFont" font-size="13" font-weight="400" font-style="normal" 
>
<path vector-effect="non-scaling-stroke" fill-rule="evenodd" d="M15,7.5 C15,11.6421 11.6421,15 7.5,15 C3.35786,15 0,11.6421 0,7.5 C0,3.35786 3.35786,0 7.5,0 C11.6421,0 15,3.35786 15,7.5 "/>
</g>

<g fill="none" stroke="#000000" stroke-opacity="1" stroke-width="1" stroke-linecap="square" stroke-linejoin="bevel" transform="matrix(0.999185,0,0,0.999185,360.76,206.062)"
font-family=".AppleSystemUIFont" font-size="13" font-weight="400" font-style="normal" 
>
</g>

<g fill="none" stroke="#000000" stroke-opacity="1" stroke-width="1" stroke-linecap="square" stroke-linejoin="bevel" transform="matrix(0.999185,0,0,0.999185,390.735,206.062)"
font-family=".AppleSystemUIFont" font-size="13" font-weight="400" font-style="normal" 
>
</g>

<g fill="none" stroke="#000000" stroke-opacity="1" stroke-width="1" stroke-linecap="square" stroke-linejoin="bevel" transform="matrix(0.999185,0,0,0.999185,390.735,206.062)"
font-family="Baskerville" font-size="10" font-weight="400" font-style="normal" 
>
<text fill="#000000" fill-opacity="1" stroke="none" xml:space="preserve" x="0" y="8.96875" font-family="Baskerville" font-size="10" font-weight="400" font-style="normal" 
 >Haplo_3</text>
</g>

<g fill="none" stroke="#000000" stroke-opacity="1" stroke-width="1" stroke-linecap="square" stroke-linejoin="bevel" transform="matrix(0.999185,0,0,0.999185,390.735,206.062)"
font-family=".AppleSystemUIFont" font-size="13" font-weight="400" font-style="normal" 
>
</g>

<g fill="none" stroke="#000000" stroke-opacity="1" stroke-width="1" stroke-linecap="square" stroke-linejoin="bevel" transform="matrix(0.999185,0,0,0.999185,360.76,226.046)"
font-family=".AppleSystemUIFont" font-size="13" font-weight="400" font-style="normal" 
>
</g>

<g fill="#f9b25d" fill-opacity="1" stroke="#000000" stroke-opacity="1" stroke-width="1" stroke-linecap="square" stroke-linejoin="bevel" transform="matrix(0.999185,0,0,0.999185,360.76,226.046)"
font-family=".AppleSystemUIFont" font-size="13" font-weight="400" font-style="normal" 
>
<path vector-effect="non-scaling-stroke" fill-rule="evenodd" d="M15,7.5 C15,11.6421 11.6421,15 7.5,15 C3.35786,15 0,11.6421 0,7.5 C0,3.35786 3.35786,0 7.5,0 C11.6421,0 15,3.35786 15,7.5 "/>
</g>

<g fill="none" stroke="#000000" stroke-opacity="1" stroke-width="1" stroke-linecap="square" stroke-linejoin="bevel" transform="matrix(0.999185,0,0,0.999185,360.76,226.046)"
font-family=".AppleSystemUIFont" font-size="13" font-weight="400" font-style="normal" 
>
</g>

<g fill="none" stroke="#000000" stroke-opacity="1" stroke-width="1" stroke-linecap="square" stroke-linejoin="bevel" transform="matrix(0.999185,0,0,0.999185,390.735,226.046)"
font-family=".AppleSystemUIFont" font-size="13" font-weight="400" font-style="normal" 
>
</g>

<g fill="none" stroke="#000000" stroke-opacity="1" stroke-width="1" stroke-linecap="square" stroke-linejoin="bevel" transform="matrix(0.999185,0,0,0.999185,390.735,226.046)"
font-family="Baskerville" font-size="10" font-weight="400" font-style="normal" 
>
<text fill="#000000" fill-opacity="1" stroke="none" xml:space="preserve" x="0" y="8.96875" font-family="Baskerville" font-size="10" font-weight="400" font-style="normal" 
 >Haplo_4</text>
</g>

<g fill="none" stroke="#000000" stroke-opacity="1" stroke-width="1" stroke-linecap="square" stroke-linejoin="bevel" transform="matrix(0.999185,0,0,0.999185,390.735,226.046)"
font-family=".AppleSystemUIFont" font-size="13" font-weight="400" font-style="normal" 
>
</g>

<g fill="none" stroke="#000000" stroke-opacity="1" stroke-width="1" stroke-linecap="square" stroke-linejoin="bevel" transform="matrix(0.999185,0,0,0.999185,360.76,246.029)"
font-family=".AppleSystemUIFont" font-size="13" font-weight="400" font-style="normal" 
>
</g>

<g fill="#f66a07" fill-opacity="1" stroke="#000000" stroke-opacity="1" stroke-width="1" stroke-linecap="square" stroke-linejoin="bevel" transform="matrix(0.999185,0,0,0.999185,360.76,246.029)"
font-family=".AppleSystemUIFont" font-size="13" font-weight="400" font-style="normal" 
>
<path vector-effect="non-scaling-stroke" fill-rule="evenodd" d="M15,7.5 C15,11.6421 11.6421,15 7.5,15 C3.35786,15 0,11.6421 0,7.5 C0,3.35786 3.35786,0 7.5,0 C11.6421,0 15,3.35786 15,7.5 "/>
</g>

<g fill="none" stroke="#000000" stroke-opacity="1" stroke-width="1" stroke-linecap="square" stroke-linejoin="bevel" transform="matrix(0.999185,0,0,0.999185,360.76,246.029)"
font-family=".AppleSystemUIFont" font-size="13" font-weight="400" font-style="normal" 
>
</g>

<g fill="none" stroke="#000000" stroke-opacity="1" stroke-width="1" stroke-linecap="square" stroke-linejoin="bevel" transform="matrix(0.999185,0,0,0.999185,390.735,246.029)"
font-family=".AppleSystemUIFont" font-size="13" font-weight="400" font-style="normal" 
>
</g>

<g fill="none" stroke="#000000" stroke-opacity="1" stroke-width="1" stroke-linecap="square" stroke-linejoin="bevel" transform="matrix(0.999185,0,0,0.999185,390.735,246.029)"
font-family="Baskerville" font-size="10" font-weight="400" font-style="normal" 
>
<text fill="#000000" fill-opacity="1" stroke="none" xml:space="preserve" x="0" y="8.96875" font-family="Baskerville" font-size="10" font-weight="400" font-style="normal" 
 >Haplo_5</text>
</g>

<g fill="none" stroke="#000000" stroke-opacity="1" stroke-width="1" stroke-linecap="square" stroke-linejoin="bevel" transform="matrix(0.999185,0,0,0.999185,390.735,246.029)"
font-family=".AppleSystemUIFont" font-size="13" font-weight="400" font-style="normal" 
>
</g>

<g fill="none" stroke="#000000" stroke-opacity="1" stroke-width="1" stroke-linecap="square" stroke-linejoin="bevel" transform="matrix(1,0,0,1,0,0)"
font-family=".AppleSystemUIFont" font-size="13" font-weight="400" font-style="normal" 
>
</g>
</g>
</svg>
